<?xml version="1.0" standalone="no"?>
<!DOCTYPE svg PUBLIC "-//W3C//DTD SVG 20010904//EN"
 "http://www.w3.org/TR/2001/REC-SVG-20010904/DTD/svg10.dtd">
<svg version="1.0" xmlns="http://www.w3.org/2000/svg"
 width="64.000000pt" height="64.000000pt" viewBox="0 0 64.000000 64.000000"
 preserveAspectRatio="xMidYMid meet">

<g transform="translate(0.000000,64.000000) scale(0.100000,-0.100000)"
fill="#000000" stroke="none">
<path d="M263 630 c-127 -26 -228 -129 -253 -259 -25 -135 56 -284 188 -344
65 -29 179 -29 244 0 61 28 137 104 168 168 35 74 34 179 -3 257 -61 126 -212
204 -344 178z m87 -112 c11 -24 20 -50 20 -59 0 -14 7 -13 48 9 28 15 55 23
65 19 16 -6 16 -9 2 -44 -9 -20 -22 -45 -30 -53 -21 -24 -19 -30 13 -30 15 0
42 -9 61 -21 l34 -21 -29 -19 c-16 -11 -46 -22 -67 -25 l-38 -7 19 -21 c40
-44 57 -106 28 -106 -7 0 -33 11 -59 24 l-45 24 -11 -42 c-6 -24 -18 -49 -27
-57 -14 -11 -19 -10 -34 9 -10 12 -21 40 -25 63 l-7 41 -22 -21 c-22 -21 -67
-41 -93 -41 -20 0 -10 42 22 91 l24 37 -37 6 c-37 5 -82 30 -82 44 0 15 59 42
89 42 36 0 38 4 11 32 -22 23 -45 86 -36 95 10 10 80 -15 104 -37 l22 -21 0
23 c1 31 36 108 50 108 6 0 20 -19 30 -42z"/>
<path d="M301 499 c-6 -18 -11 -39 -11 -48 0 -28 21 -91 29 -91 18 0 32 89 21
130 -13 48 -24 51 -39 9z"/>
<path d="M170 452 c0 -27 51 -80 93 -97 20 -8 37 -13 37 -10 0 15 -51 83 -71
96 -42 27 -59 30 -59 11z"/>
<path d="M440 459 c-32 -13 -68 -47 -86 -81 -19 -37 -18 -38 16 -27 33 12 100
81 100 104 0 8 -1 15 -2 14 -2 0 -14 -5 -28 -10z"/>
<path d="M120 330 c-45 -28 106 -51 155 -23 19 11 19 12 -8 22 -35 13 -127 14
-147 1z"/>
<path d="M365 327 c-17 -13 -16 -15 15 -25 18 -7 45 -12 60 -12 15 0 42 5 60
12 31 10 32 12 15 25 -11 7 -44 13 -75 13 -31 0 -64 -6 -75 -13z"/>
<path d="M237 265 c-34 -24 -67 -70 -67 -94 0 -20 61 11 84 43 59 78 52 97
-17 51z"/>
<path d="M358 253 c23 -45 47 -68 85 -82 33 -13 35 -2 7 44 -22 35 -50 57 -88
69 l-23 8 19 -39z"/>
<path d="M302 241 c-16 -50 -15 -65 4 -109 l16 -37 15 40 c12 33 12 50 3 93
-6 28 -15 52 -19 52 -4 0 -13 -17 -19 -39z"/>
</g>
</svg>
